<svg width="664" height="848" viewBox="0 0 664 848" fill="none" xmlns="http://www.w3.org/2000/svg">
<mask id="mask0_490_5767" style="mask-type:alpha" maskUnits="userSpaceOnUse" x="0" y="0" width="664" height="848">
<rect width="664" height="848" fill="#D9D9D9"/>
</mask>
<g mask="url(#mask0_490_5767)">
<path d="M685.209 558.267H-36.707V1315.19H685.209V558.267Z" fill="#9349DE"/>
<path d="M685.209 -47.8965H-36.707V570.829H685.209V-47.8965Z" fill="#6E20BE"/>
<g filter="url(#filter0_d_490_5767)">
<path d="M-59.5469 370.867C-59.5469 325.549 -40.844 282.086 -7.5528 250.041C25.7384 217.997 70.8911 199.994 117.972 199.994C158.308 199.935 197.452 213.156 228.905 237.464C245.238 231.429 262.588 228.344 280.084 228.365C289.703 228.36 299.299 229.287 308.725 231.133C322.822 216.414 339.938 204.672 358.992 196.648C378.046 188.625 398.622 184.494 419.419 184.519C452.026 184.469 483.762 194.644 509.825 213.504C523.547 209.664 537.766 207.72 552.056 207.732C592.03 207.732 630.367 223.017 658.634 250.225C686.9 277.433 702.78 314.335 702.78 352.812C702.78 371.865 698.881 390.73 691.306 408.332C683.732 425.934 672.63 441.928 658.634 455.4C644.638 468.872 628.022 479.558 609.735 486.849C591.449 494.14 571.849 497.893 552.056 497.893C519.449 497.943 487.713 487.768 461.65 468.908C447.928 472.748 433.709 474.691 419.419 474.68C404.358 474.693 389.379 472.533 374.983 468.272C348.877 490.715 315.086 503.099 280.084 503.051C265.755 503.065 251.506 501 237.817 496.926C205.122 525.804 162.346 541.799 117.972 541.74C70.8911 541.74 25.7384 523.737 -7.5528 491.692C-40.844 459.647 -59.5469 416.185 -59.5469 370.867Z" fill="#560F9F"/>
</g>
<g filter="url(#filter1_d_490_5767)">
<path d="M405.416 623.339C391.727 627.413 377.478 629.479 363.149 629.465C328.146 629.515 294.355 617.131 268.251 594.686C253.854 598.947 238.875 601.107 223.813 601.094C209.524 601.105 195.304 599.162 181.583 595.322C155.52 614.182 123.783 624.357 91.1767 624.307C51.2023 624.307 12.8651 609.022 -15.401 581.814C-43.6672 554.606 -59.5469 517.704 -59.5469 479.226C-59.5469 440.749 -43.6672 403.847 -15.401 376.639C12.8651 349.431 51.2023 334.146 91.1767 334.146C105.467 334.134 119.686 336.078 133.407 339.918C159.471 321.058 191.207 310.883 223.813 310.933C244.611 310.908 265.187 315.039 284.241 323.062C303.294 331.086 320.411 342.828 334.508 357.547C343.934 355.701 353.53 354.774 363.149 354.779C380.645 354.758 397.994 357.842 414.328 363.876C445.781 339.569 484.925 326.348 525.261 326.408C572.342 326.408 617.494 344.411 650.785 376.456C684.077 408.5 702.78 451.963 702.78 497.281C702.78 542.599 684.077 586.061 650.785 618.106C617.494 650.151 572.342 668.154 525.261 668.154C480.887 668.213 438.111 652.217 405.416 623.339Z" fill="#6E20BE"/>
</g>
<path d="M-59.5469 616.63C-59.5469 571.311 -40.844 527.849 -7.5528 495.804C25.7384 463.759 70.8911 445.757 117.972 445.757C158.308 445.697 197.452 458.919 228.905 483.226C245.238 477.191 262.588 474.107 280.084 474.128C289.703 474.123 299.299 475.05 308.725 476.896C322.822 462.177 339.938 450.435 358.992 442.411C378.046 434.387 398.622 430.257 419.419 430.281C452.026 430.232 483.762 440.407 509.825 459.267C523.547 455.427 537.766 453.483 552.056 453.494C592.03 453.494 630.367 468.78 658.634 495.987C686.9 523.195 702.78 560.097 702.78 598.575C702.78 617.627 698.881 636.493 691.306 654.095C683.732 671.697 672.63 687.691 658.634 701.163C644.638 714.635 628.022 725.321 609.735 732.612C591.449 739.903 571.849 743.656 552.056 743.656C519.449 743.705 487.713 733.531 461.65 714.671C447.928 718.511 433.709 720.454 419.419 720.443C404.358 720.456 389.379 718.296 374.983 714.035C348.877 736.478 315.086 748.861 280.084 748.814C265.755 748.828 251.506 746.763 237.817 742.689C205.122 771.566 162.346 787.562 117.972 787.502C70.8911 787.502 25.7384 769.5 -7.5528 737.455C-40.844 705.41 -59.5469 661.948 -59.5469 616.63Z" fill="#9349DE"/>
</g>
<defs>
<filter id="filter0_d_490_5767" x="-79.5469" y="167.519" width="802.326" height="397.222" filterUnits="userSpaceOnUse" color-interpolation-filters="sRGB">
<feFlood flood-opacity="0" result="BackgroundImageFix"/>
<feColorMatrix in="SourceAlpha" type="matrix" values="0 0 0 0 0 0 0 0 0 0 0 0 0 0 0 0 0 0 127 0" result="hardAlpha"/>
<feOffset dy="3"/>
<feGaussianBlur stdDeviation="10"/>
<feColorMatrix type="matrix" values="0 0 0 0 0 0 0 0 0 0 0 0 0 0 0 0 0 0 0.102 0"/>
<feBlend mode="normal" in2="BackgroundImageFix" result="effect1_dropShadow_490_5767"/>
<feBlend mode="normal" in="SourceGraphic" in2="effect1_dropShadow_490_5767" result="shape"/>
</filter>
<filter id="filter1_d_490_5767" x="-79.5469" y="293.933" width="802.326" height="397.222" filterUnits="userSpaceOnUse" color-interpolation-filters="sRGB">
<feFlood flood-opacity="0" result="BackgroundImageFix"/>
<feColorMatrix in="SourceAlpha" type="matrix" values="0 0 0 0 0 0 0 0 0 0 0 0 0 0 0 0 0 0 127 0" result="hardAlpha"/>
<feOffset dy="3"/>
<feGaussianBlur stdDeviation="10"/>
<feColorMatrix type="matrix" values="0 0 0 0 0 0 0 0 0 0 0 0 0 0 0 0 0 0 0.102 0"/>
<feBlend mode="normal" in2="BackgroundImageFix" result="effect1_dropShadow_490_5767"/>
<feBlend mode="normal" in="SourceGraphic" in2="effect1_dropShadow_490_5767" result="shape"/>
</filter>
</defs>
</svg>
